<?xml version="1.0" encoding="utf-8"?>
<!-- Generator: Adobe Illustrator 19.0.0, SVG Export Plug-In . SVG Version: 6.00 Build 0)  -->
<svg version="1.1" id="Layer_1" xmlns="http://www.w3.org/2000/svg" xmlns:xlink="http://www.w3.org/1999/xlink" x="0px" y="0px"
	 viewBox="0 0 271 276" style="enable-background:new 0 0 271 276;" xml:space="preserve">
<style type="text/css">
	.st0{fill:none;}
	.st1{fill:none;stroke:#000000;stroke-width:10;stroke-miterlimit:10;}
	.st2{stroke:#000000;stroke-width:10;stroke-miterlimit:10;}
</style>
<rect id="XMLID_19_" x="115" y="202" class="st0" width="99" height="17"/>
<g id="XMLID_29_">
	<g id="XMLID_17_">
		<g id="XMLID_15_">
			<path id="XMLID_31_" class="st1" d="M242.7,76.8c25.5,42.8,23.7,98.7-8.8,140.4c-42.3,54.2-120.6,63.9-174.8,21.5
				S-4.7,118.1,37.6,63.9c32.9-42.1,87.5-57.3,135.6-42.2"/>
		</g>
		<g id="XMLID_18_">
			<path id="XMLID_30_" class="st2" d="M187.2,260.6c-11.2,4.8-23.1,8-35.5,9.5c-34.6,4.3-68.8-5.2-96.3-26.7
				c-27.5-21.5-45-52.3-49.2-86.9s5.2-68.8,26.7-96.3C49.5,38.8,72,23.4,97.9,15.6c25.3-7.6,52-7.5,77.1,0.4c3.2,1,4.9,4.4,3.9,7.5
				c-1,3.2-4.4,4.9-7.5,3.9c-46.9-14.8-98.8,1.3-129.1,40.1c-19.5,25-28.1,56-24.2,87.4c3.9,31.4,19.7,59.5,44.7,78.9
				c25,19.5,56,28.1,87.4,24.2c31.4-3.9,59.5-19.7,78.9-44.7c30.3-38.8,33.6-91.3,8.4-133.6c-1.7-2.8-0.8-6.5,2.1-8.2
				c2.8-1.7,6.5-0.8,8.2,2.1c13.3,22.3,19.6,47.9,18.2,74c-1.5,26.7-10.9,52-27.4,73.1C224.9,238.5,207.2,252,187.2,260.6z"/>
		</g>
	</g>
	<g id="XMLID_14_">
		<circle id="XMLID_22_" class="st2" cx="174.8" cy="23.2" r="14"/>
		<path id="XMLID_26_" class="st2" d="M181.6,39.3c-8.9,3.8-19.2-0.3-23-9.2c-3.8-8.9,0.3-19.2,9.2-23c8.9-3.8,19.2,0.3,23,9.2
			C194.7,25.2,190.5,35.5,181.6,39.3z M170.6,13.6c-5.3,2.3-7.8,8.5-5.5,13.8c2.3,5.3,8.5,7.8,13.8,5.5c5.3-2.3,7.8-8.5,5.5-13.8
			S176,11.3,170.6,13.6z"/>
	</g>
</g>
<g id="XMLID_16_">
	<path id="XMLID_23_" d="M209.7,143.4c0,12.3-2.9,23.4-8.7,33.2c-5.8,9.9-13.6,17.6-23.5,23.1c-8,4.3-16.1,7.1-24.3,8.6
		c-8.2,1.4-18.7,2.2-31.5,2.2H85.3V76h35.9c14.8,0,26.5,0.9,34.9,2.8c8.4,1.9,15.6,4.5,21.6,7.8c10.2,5.7,18,13.3,23.6,22.8
		C206.9,118.9,209.7,130.3,209.7,143.4z M187.9,143.1c0-10.4-2-19.2-6-26.5c-4-7.3-10-13-17.9-17.1c-5.6-2.9-11.5-5-17.9-6.2
		s-14.3-1.9-23.7-1.9h-16v103.8h16c9.3,0,17.5-0.6,24.5-1.9c7-1.3,13.4-3.6,19.2-7c7.3-4.2,12.7-9.8,16.4-16.8
		C186,162.3,187.9,153.6,187.9,143.1z"/>
</g>
</svg>
