<svg xmlns="http://www.w3.org/2000/svg" xmlns:xlink="http://www.w3.org/1999/xlink" version="1.1" id="Layer_1" x="0px" y="0px" viewBox="0 0 1200 1200" enable-background="new 0 0 1200 1200" xml:space="preserve">
<g>
	<path fill="#231F20" d="M638.225,931.597c34.3,29.352,68.494,58.83,102.987,87.954c7.227,6.103,11.577,12.385,10.817,22.437   c-0.757,10.014-0.135,19.823,6.626,28.836c8.918,11.888,3.427,24.399-1.373,36.314c-4.581,11.372-14.543,7.182-22.863,7.432   c-19.628,0.591-25.961-5.136-29.329-25.736c-0.517-3.158,3.235-8.894,6.517-8.292c3.286-6.661,5.142-14.953,10.264-19.787   c8.444-7.971,3.39-13.126-1.358-18.807c-2.517-3.013-6.028-5.222-9.186-7.67c-29.997-23.25-59.95-46.559-90.061-69.662   c-11.812-9.064-23.989-17.651-35.851-26.345c-1.776,2.149-2.195,2.419-2.198,2.694c-0.165,15.645,0.017,31.305-0.662,46.926   c-0.159,3.649-2.297,9.008-5.122,10.448c-15.73,8.019-28.645,0.061-28.802-16.955c-0.055-6.018-0.016-12.076-0.72-18.032   c-0.315-2.661-2.359-5.117-4.63-9.714c-25.311,31.405-49.248,60.854-72.849,90.569c-5.911,7.441-11.068,15.546-15.931,23.727   c-2.36,3.97-3.599,7.002,3.61,10.299c12.121,5.542,12.79,38.271,2.214,46.578c-0.91,0.715-2.026,1.617-3.068,1.644   c-8.984,0.235-17.976,0.42-26.961,0.289c-1.769-0.026-4.014-1.027-5.195-2.339c-7.639-8.487-5.04-39.632,4.917-45.881   c6.34-3.979,6.444-7.862,6.629-14.24c0.259-8.924,0.77-19.186,5.213-26.38c11.332-18.346,24.967-35.264,37.562-52.838   c12.866-17.95,25.59-36.001,40.318-56.742c-63.151,14.762-122.903,28.729-183.469,42.887c1.62,15.734,12.75,28.072,3.643,44.544   c-9.818,17.756-39.726,18.211-48.347-11.021c-0.816-2.766-0.5-6.41,0.369-9.348c4.435-14.989,12.95-20.551,30.038-20.04   c0.315-5.992-0.417-12.309,1.292-17.877c1.262-4.109,5.046-9.209,8.843-10.486c24.101-8.108,48.567-15.117,72.819-22.787   c42.028-13.292,83.874-27.176,126.049-39.978c11.808-3.584,17.754-8.807,15.458-21.695c-0.736-4.13-1.012-10.856,1.313-12.56   c7.923-5.808,5.446-13.454,5.71-20.659c0.264-7.215-0.96-14.622,0.25-21.636c2.023-11.728-4.659-15.503-13.875-17.475   c-3.469-0.743-7.182-0.574-10.774-0.477c-28.063,0.75-56.136,1.303-84.178,2.545c-9.78,0.433-17.473-0.935-19.743-11.817   c-11.195,2.927-21.726,5.68-32.588,8.52c0.872,5.679,1.553,11.158,2.591,16.568c1.042,5.432,3.625,10.87,3.289,16.163   c-0.245,3.86-3.425,9.538-6.597,10.631c-3.025,1.042-9.694-1.738-11.308-4.713c-3.731-6.874-6.719-14.721-7.646-22.457   c-7.585-63.293-30.404-121.656-57.893-178.352c-6.652-13.719-16.647-26.032-26.292-38.037   c-20.202-25.145-41.958-49.031-55.82-78.75c-4.671-10.013-10.872-19.502-17.517-28.375c-34.207-45.673-65.769-92.934-90-144.801   c-24.012-51.399-43.084-104.696-60.795-158.494c-5.536-16.816-10.966-33.855-14.076-51.216   c-2.152-12.011,2.865-15.272,15.063-14.648c2.67,0.136,5.526-0.3,8.066-1.156c21.305-7.18,42.264-15.63,63.951-21.324   c10.277-2.699,21.72,2.654,26.211,12.92c11.965,27.349,23.092,55.116,33.215,83.198c5.049,14.007,0.966,26.895-11.924,36.058   c-1.43,1.016-2.982,4.048-2.458,5.296c6.604,15.733,13.58,31.309,20.461,46.925c6.668-16.149,11.481-30.437,26.693-38.666   c3.091-1.672,5.577-8.178,5.116-12.074c-2.464-20.838-3.997-42.095-9.54-62.188c-8.255-29.926,14.93-75.368,51.61-85.472   c23.163-6.381,43.795-1.053,64.227,8.448c10.745,4.997,20.53,12.636,31.678,16.041c14.671,4.481,19.286,13.116,17.28,27.113   c-0.257,1.788,0.006,4.984-0.657,5.177c-8.077,2.36-3.609,8.137-3.891,12.722c-0.861,13.986,8.619,28.557-2.973,42.209   c-1.765,2.08,0.822,8.33,2.137,12.412c1.214,3.77,3.542,7.167,5.171,10.821c6.063,13.605,5.22,15.36-8.944,18.818   c-0.694,3.693-1.403,7.468-2.759,14.683c16.461-14.143,39.828-10.892,49.445-31.698c1.068-2.31,7.21-3.648,10.546-3.023   c2.006,0.376,3.084,5.455,4.674,8.368c1.527,2.8,2.486,6.667,4.876,8.124c34.613,21.099,37.841,27.226,35.03,63.382   c-0.245,3.152,1.745,7.335,4.074,9.659c5.351,5.339,11.548,9.831,17.407,14.66c23.488,19.357,26.003,30.422,13.188,57.825   c-0.826,1.765-1.692,3.588-2.064,5.478c-3.813,19.35-12.846,34.829-32.134,42.379c10.954,17.796,55.124,37.388,54.826,38.959   c12.849,4.257,25.718,8.453,38.539,12.793c7.997,2.707,18.098,3.549,23.312,8.999c6.109,6.387,8.391,5.694,14.475,1.226   c3.859-2.833,9.973-2.595,17.061-4.177c0.386-3.959,56.845-14.837,60.51-20.887c8.961-14.787,28.003-25.705,45.03-22.403   c1.824,0.354,3.883,1.345,5.092,2.701c5.048,5.661,43.29,14.038,54.722,10.213c30.179-10.099,59.975-32.086,92.656-7.053   c9.966,7.634,21.118,15.432,27.44,25.775c15.924,26.052,29.332,53.637,43.975,80.483c1.524,2.795,4.342,6.494,6.943,6.832   c18.395,2.397,36.953,6.005,55.339,5.423c25.849-0.818,51.578-5.09,77.391-7.537c8.485-0.804,15.736,2.946,17.05,11.606   c1.257,8.284,1.796,17.581-0.716,25.343c-5.357,16.548-19.979,25.383-33.822,34.196c-18.702,11.906-38.736,22.615-61.329,19.821   c-24.781-3.065-48.991-8.115-73.295,6.825c5.375,20.646,10.527,42.984,17.027,64.923c19.322,65.22,39.414,130.214,58.602,195.473   c3.453,11.742,11.814,23.106,4.899,36.948c-1.267,2.535,3.195,9.009,6.345,12.443c5.843,6.371,16.181,10.765,18.366,17.905   c4.844,15.829,16.201,18.808,29.053,18.955c14.231,0.163,28.715-0.787,42.672-3.446c14.899-2.838,18.907,8.324,23.555,17.03   c1.405,2.631,6.62,38.246-32.629,48.528c-7.036,2.603-14.847,3.63-22.4,4.223c-30.782,2.419-61.572,5.272-92.412,6.263   c-24.285,0.78-49.009,3.636-72.613-6.015c-7.997-3.269-14.185-7.94-14.706-17.007c-1.254-21.875-2.037-43.778-3.015-65.771   c-2.446-3.087-6.556-6.496-8.327-10.856c-4.606-11.337-8.966-22.889-12.038-34.715c-13.144-50.596-26.219-101.217-38.43-152.043   c-5.911-24.603-8.429-50.09-15.417-74.331c-2.705-9.381-3.134-22.433-14.529-27.816c-17.232-8.141-34.77-15.635-54.334-24.366   c-3.838,43.8-25.467,73.27-58.811,90.2c3.203,15.613,7.442,28.219,8.01,40.988c0.791,17.761-16.176,27.238-30.387,16.886   c-8.936-6.51-15.057-16.855-22.564-25.372c-2.318-2.63-4.991-6.945-7.588-7.01c-17.755-0.441-26.614,7.483-29.669,25.535   c1.583,0.946,3.203,2.114,4.982,2.942c7.526,3.503,15.395,6.404,22.507,10.596c2.764,1.629,3.861,6.086,5.718,9.254   c-3.18,1.448-6.582,4.462-9.498,4.048c-8.547-1.213-17.104-3.187-25.29-5.949c-23.083-7.791-23.478-9.09-18.138-32.105   c0.707-3.045-0.348-9.12-1.927-9.628c-7.45-2.398-15.411-4.514-23.093-4.216c-2.919,0.113-7.884,6.919-7.96,10.753   c-0.355,18.006,0.629,36.041,1.233,54.062c0.091,2.727-0.052,7.386,1.175,7.856c13.086,5.013,7.974,16.085,8.098,24.77   c0.112,7.816,2.562,10.803,10.249,12.805c52.342,13.628,104.586,27.649,156.728,42.028c27.381,7.551,27.26,7.993,28.914,34.596   c0.778,0.072,1.649,0.397,2.321,0.159c11.61-4.118,19.333,1.56,25.184,10.555c5.688,8.745,4.785,17.253-2.431,25.126   c-1.581,1.725-3.246,4.788-2.775,6.724c1.682,6.918-1.669,9.08-7.506,10.977c-10.272,3.337-33.974-8.204-33.528-20.625   c0.29-8.048,0.468-16.462,2.92-23.986c3.721-11.415,3.187-14.265-8.757-16.472c-39.045-7.215-78.141-14.148-117.217-21.19   C638.761,930.112,638.493,930.855,638.225,931.597z M430.963,302.766c-3.304-6.425-11.315-10.429-17.718-15.882   c-6.306,2.607-13.516,5.588-21.291,8.803c-6.075-13.77-11.9-26.975-19.429-44.042c-3.054,7.199-4.78,11.295-6.528,15.382   c-1.937,4.529-3.892,9.051-6.093,14.163c20.119,10.497,38.577,23.726,53.229,42.295c3.044,3.857,12.154,2.927,20.368,4.588   C432.726,317.901,434.225,309.109,430.963,302.766z"/>
</g>
</svg>