<?xml version="1.0" standalone="no"?>
<!DOCTYPE svg PUBLIC "-//W3C//DTD SVG 20010904//EN"
 "http://www.w3.org/TR/2001/REC-SVG-20010904/DTD/svg10.dtd">
<svg version="1.0" xmlns="http://www.w3.org/2000/svg"
 width="1280.000000pt" height="753.000000pt" viewBox="0 0 1280.000000 753.000000"
 preserveAspectRatio="xMidYMid meet" id="bg">
    <style>#bg {opacity: 0.1}</style>
<metadata>
Created by potrace 1.15, written by Peter Selinger 2001-2017
</metadata>
<g transform="translate(0.000000,753.000000) scale(0.100000,-0.100000)"
fill="#300D4F" stroke="none">
<path d="M7750 7520 c0 -5 5 -10 11 -10 5 0 7 5 4 10 -3 6 -8 10 -11 10 -2 0
-4 -4 -4 -10z"/>
<path d="M2360 5963 c-8 -3 -26 -15 -40 -27 -25 -21 -25 -22 -22 -173 1 -84 4
-153 7 -153 2 0 16 5 31 10 23 9 25 8 15 -4 -6 -7 -25 -16 -41 -18 -22 -3 -30
0 -36 16 -4 12 -11 -100 -16 -249 -5 -148 -11 -276 -13 -282 -7 -20 -50 -15
-70 7 -14 16 -31 20 -74 20 -52 0 -58 -3 -78 -33 -13 -17 -23 -26 -23 -19 0 6
-4 12 -9 12 -4 0 -11 -102 -15 -227 -16 -562 -28 -829 -37 -838 -7 -7 -15 -3
-25 10 -15 20 -15 20 -34 -5 -11 -14 -20 -36 -20 -49 0 -28 -16 -18 -22 14 -2
12 -18 25 -43 34 -22 8 -44 21 -48 28 -10 16 -70 8 -104 -13 -30 -19 -57 -18
-49 1 3 8 1 15 -5 15 -6 0 -7 5 -3 11 9 14 -52 69 -77 69 -12 0 -19 7 -19 20
0 29 -20 24 -51 -12 l-28 -33 -1 53 c0 51 1 53 23 47 l22 -6 -22 19 c-20 18
-21 28 -22 183 -1 90 -5 167 -9 170 -4 4 -54 12 -112 18 -122 13 -143 27 -164
107 -13 46 -14 47 -21 22 -10 -37 -24 -35 -32 2 -5 26 -9 29 -27 24 -34 -11
-66 -35 -66 -50 0 -8 -5 -14 -11 -14 -6 0 -9 -6 -6 -13 3 -7 -4 -19 -14 -26
-25 -15 -38 -50 -44 -113 -6 -74 -15 -71 -15 5 0 38 -4 67 -10 67 -6 0 -10
-41 -10 -102 0 -88 -3 -105 -20 -123 -15 -16 -20 -36 -21 -93 -1 -61 -5 -75
-22 -87 -17 -12 -18 -17 -7 -30 25 -30 2 -25 -29 7 -24 24 -31 28 -31 14 0 -9
-6 -16 -14 -14 -32 6 -19 -16 14 -26 30 -8 32 -10 12 -14 -33 -5 -27 -19 15
-33 21 -6 41 -17 45 -22 10 -17 -2 -28 -22 -22 -10 3 -21 1 -25 -5 -5 -8 -11
-6 -19 5 -13 19 -106 30 -106 14 0 -5 -10 -14 -22 -19 l-23 -9 22 -7 c13 -3
23 -11 23 -18 0 -6 3 -21 6 -33 5 -18 2 -23 -12 -23 -32 0 -50 16 -36 32 9 12
3 14 -36 14 l-47 -1 -1 48 c-2 57 -6 62 -32 46 -19 -12 -19 -12 -1 -30 21 -21
25 -49 8 -49 -6 0 -8 -7 -5 -16 4 -12 2 -15 -9 -10 -16 6 -25 -21 -22 -64 2
-25 1 -25 -81 -25 -79 0 -105 6 -82 20 18 11 10 25 -15 25 -21 0 -25 -5 -25
-30 0 -25 -4 -30 -24 -30 -14 0 -28 -5 -32 -12 -5 -7 -12 3 -20 28 -6 21 -12
31 -13 20 -1 -16 -6 -14 -33 13 -28 27 -34 30 -43 17 -10 -12 -13 -12 -23 5
-19 30 -48 24 -56 -12 -3 -17 -6 -911 -6 -1985 l0 -1954 6400 0 6400 0 0 2503
c0 1376 -4 2508 -8 2515 -7 10 -15 10 -43 -2 -62 -25 -239 -37 -592 -39 -327
-2 -349 -1 -358 16 -6 10 -22 22 -35 27 -21 8 -24 16 -24 59 l0 49 -50 12
c-42 10 -51 16 -56 39 -3 14 -11 37 -17 49 -9 20 -8 25 6 34 17 9 17 11 0 39
-9 16 -25 29 -35 29 -25 0 -23 31 2 37 11 3 20 9 20 13 0 4 -9 10 -20 13 -23
6 -27 37 -5 37 8 0 15 7 15 15 0 8 -7 15 -15 15 -12 0 -15 14 -15 68 0 101
-16 110 -25 13 -4 -44 -9 -81 -12 -81 -3 0 -23 5 -44 11 -30 10 -42 9 -54 -1
-19 -16 -17 -74 3 -76 6 -1 19 -2 27 -3 8 0 15 -8 15 -16 0 -10 -10 -15 -31
-15 -34 0 -37 -24 -3 -26 46 -2 54 -5 54 -20 0 -13 -8 -15 -35 -12 -27 3 -35
0 -35 -12 0 -11 8 -16 23 -16 13 1 22 -5 22 -14 0 -9 -10 -15 -25 -15 -23 0
-25 -5 -28 -47 -3 -39 -6 -47 -25 -50 -14 -2 -23 -11 -25 -26 -2 -12 -12 -27
-22 -32 -11 -6 -23 -25 -28 -43 -6 -25 -14 -33 -36 -35 -15 -2 -30 -10 -32
-17 -3 -7 -23 -17 -45 -20 -50 -9 -61 -33 -47 -100 15 -71 7 -627 -10 -647 -9
-12 -10 -23 -2 -42 6 -18 7 -34 0 -45 -6 -12 -5 -22 2 -29 10 -10 8 -50 -7
-117 -3 -16 -8 -40 -11 -52 -2 -13 -11 -23 -19 -23 -21 0 -19 -20 3 -20 10 -1
2 -9 -20 -20 -30 -16 -42 -18 -67 -9 -35 12 -40 25 -43 114 -3 57 -4 60 -30
63 -22 3 -28 9 -28 28 0 39 -37 46 -240 48 -102 2 -197 6 -213 10 -17 5 -32 4
-42 -4 -8 -7 -28 -10 -45 -8 -28 4 -30 2 -36 -40 -5 -32 -12 -46 -29 -52 -24
-9 -35 -44 -35 -116 0 -76 -23 -107 -72 -96 -10 2 -18 10 -18 19 0 8 -6 12
-12 9 -7 -2 -31 -10 -53 -17 -22 -7 -48 -19 -58 -27 -20 -18 -107 -25 -104 -9
1 6 -6 11 -16 12 -10 0 -22 7 -27 15 -8 12 -10 12 -11 -5 -7 -78 -17 149 -18
387 l-1 286 -41 88 c-38 83 -41 96 -46 206 -3 65 -9 115 -13 113 -4 -2 -12
-50 -20 -106 l-13 -101 -71 7 c-39 4 -74 9 -77 11 -4 2 -10 49 -14 104 -8 115
-25 144 -25 44 0 -98 -19 -190 -55 -269 -31 -68 -32 -79 -41 -250 -5 -99 -8
-224 -7 -277 2 -91 1 -98 -17 -98 -11 0 -28 10 -39 21 -13 14 -27 20 -40 16
-14 -3 -21 0 -21 9 0 17 -31 34 -64 34 -21 0 -26 5 -26 24 0 14 -5 28 -11 32
-14 8 -29 -14 -29 -43 0 -17 -6 -23 -22 -23 -15 0 -31 -12 -46 -35 -12 -19
-28 -35 -36 -35 -9 0 -15 -24 -20 -86 -7 -100 -21 -138 -32 -88 -6 30 -10 32
-60 39 -29 3 -64 15 -79 27 -27 21 -28 21 -130 -3 -27 -6 -69 -12 -92 -12 -37
-1 -43 -5 -48 -28 -6 -25 -9 -26 -98 -33 -73 -5 -95 -10 -107 -25 -8 -10 -26
-24 -39 -31 -17 -9 -20 -15 -12 -23 16 -16 14 -67 -2 -67 -7 0 -22 7 -33 15
-10 8 -34 15 -51 15 -26 0 -34 5 -38 23 -7 31 -35 200 -35 211 0 28 -12 -11
-26 -84 -8 -47 -19 -89 -22 -95 -4 -5 -7 -14 -7 -20 -3 -27 -20 -44 -50 -49
-19 -4 -39 -14 -44 -24 -8 -12 -11 10 -11 78 l0 95 -36 18 c-19 9 -44 17 -55
17 -11 0 -17 4 -14 10 4 6 -12 10 -39 10 l-46 0 0 65 0 65 -49 0 c-27 0 -60 4
-73 9 -20 8 -111 -3 -127 -15 -2 -2 -6 -29 -10 -61 l-6 -58 -42 -3 -43 -3 0
239 c0 131 -3 266 -6 299 l-7 61 -138 7 c-133 7 -139 8 -140 28 l0 22 -11 -21
c-7 -16 -26 -25 -69 -33 l-59 -12 0 -158 0 -159 -34 -6 c-27 -5 -38 -15 -55
-49 -16 -33 -29 -44 -58 -52 l-38 -11 -7 -124 c-4 -69 -10 -131 -13 -138 -6
-17 -92 -12 -214 12 -94 19 -111 28 -104 56 3 11 -1 30 -10 43 -11 18 -13 34
-7 68 5 25 5 48 0 53 -13 13 -17 -6 -24 -97 -7 -88 -18 -117 -46 -117 -18 0
-20 9 -22 122 l-3 122 -30 8 c-16 5 -63 10 -102 10 l-73 2 0 47 c0 45 -2 48
-27 51 -27 3 -28 6 -33 73 l-6 70 -4 -70 c-5 -67 -6 -70 -31 -73 l-26 -3 -6
-151 c-4 -83 -7 -184 -7 -224 0 -56 -3 -73 -16 -78 -9 -3 -20 -4 -25 0 -5 3
-9 139 -9 313 l0 308 -40 7 c-40 6 -40 6 -41 54 -2 92 -5 96 -94 107 -72 9
-80 12 -86 35 l-7 25 -1 -27 -1 -28 -79 0 c-116 0 -115 3 -130 -248 -5 -79
-12 -146 -15 -149 -3 -4 -6 70 -6 164 l0 171 -31 6 c-17 3 -42 6 -54 6 -12 0
-28 7 -35 15 -10 11 -36 15 -111 15 -55 0 -107 -4 -117 -10 -9 -5 -39 -13 -67
-18 -45 -7 -50 -10 -53 -35 -2 -15 -9 -27 -15 -27 -39 -1 -42 -15 -48 -207
l-5 -188 -2 216 -2 217 -29 11 c-32 14 -374 12 -388 -2 -7 -8 -19 -239 -22
-429 -1 -66 -2 -68 -27 -68 -14 0 -39 9 -55 21 -16 11 -36 19 -43 16 -15 -6
-26 32 -26 89 0 28 -4 34 -22 34 -44 1 -92 33 -99 65 l-7 30 -2 -30 c-1 -25
-3 -27 -9 -11 -7 19 -8 19 -13 -2 -6 -21 -12 -22 -93 -22 -77 0 -87 2 -92 19
-5 18 -12 20 -135 38 l-38 5 0 253 0 253 -37 6 c-21 4 -52 7 -69 7 -27 -1 -44
12 -112 84 -44 47 -83 95 -85 107 -4 21 -4 21 -6 2 0 -12 -12 -26 -26 -32 -23
-11 -25 -16 -25 -84 0 -62 -3 -75 -20 -86 -19 -11 -20 -23 -20 -166 l0 -153
-106 1 c-97 1 -107 -1 -123 -21 -10 -11 -29 -23 -42 -25 -21 -3 -25 -9 -29
-53 l-5 -50 -59 0 c-55 -1 -62 -4 -91 -38 -17 -20 -43 -41 -58 -46 -25 -10
-27 -14 -27 -75 0 -70 -6 -75 -75 -76 -70 -1 -75 -6 -75 -82 0 -63 -1 -68 -16
-54 -8 9 -20 16 -25 16 -5 0 -9 103 -9 250 0 184 -3 250 -12 250 -6 0 -18 7
-27 16 -9 9 -47 33 -86 53 l-70 37 -3 307 -2 307 -23 5 c-12 3 -40 9 -62 13
l-40 8 0 139 c0 77 4 201 8 275 5 83 4 130 -2 121 -17 -25 -34 26 -26 78 13
79 7 195 -10 207 -11 8 -11 14 -3 22 8 8 5 14 -13 20 -43 17 -64 20 -79 15z
m10 -57 c0 -11 -19 -15 -25 -6 -3 5 1 10 9 10 9 0 16 -2 16 -4z m18 -103 c14
-12 14 -13 -1 -13 -20 0 -23 -16 -4 -23 6 -3 -5 -6 -25 -6 -33 -1 -38 2 -38
22 0 12 4 27 8 33 11 16 36 23 41 10 2 -6 10 -17 19 -23z m-18 -74 c0 -11 -27
-12 -34 0 -3 4 -3 11 0 14 8 8 34 -3 34 -14z m-14 -54 c-1 -32 -29 -29 -31 3
-1 15 4 22 16 22 12 0 16 -7 15 -25z m9142 -238 c3 -13 -4 -17 -27 -17 -38 0
-49 17 -19 29 29 12 42 9 46 -12z m40 -24 c-5 -25 -28 -28 -28 -4 0 12 6 21
16 21 9 0 14 -7 12 -17z m-2 -53 c8 0 11 -6 8 -15 -9 -21 -27 -19 -43 6 -11
19 -11 21 4 15 9 -3 23 -6 31 -6z m-1 -90 c-5 -8 -11 -8 -17 -2 -6 6 -7 16 -3
22 5 8 11 8 17 2 6 -6 7 -16 3 -22z m-62 -75 c-3 -8 -9 -15 -14 -15 -10 0 -12
24 -3 33 11 11 24 -3 17 -18z m931 -297 c68 -4 70 -24 4 -35 -49 -8 -53 -10
-56 -38 -7 -74 -7 -75 -70 -75 -93 0 -91 5 -94 -222 -2 -124 -7 -201 -14 -208
-6 -6 -70 -17 -143 -25 -72 -8 -148 -17 -169 -20 -69 -10 -67 -19 -67 310 0
252 2 297 15 305 8 6 124 10 262 10 161 0 249 4 253 10 5 7 11 8 19 1 6 -5 34
-11 60 -13z m-10987 -840 c-3 -8 -6 -5 -6 6 -1 11 2 17 5 13 3 -3 4 -12 1 -19z
m-677 -54 c0 -12 -7 -15 -25 -12 -17 4 -25 1 -25 -9 0 -16 -21 -14 -22 2 -1
11 40 35 60 35 6 0 12 -7 12 -16z m-8 -46 c-7 -7 -12 -8 -12 -2 0 14 12 26 19
19 2 -3 -1 -11 -7 -17z m45 0 c-3 -8 -6 -5 -6 6 -1 11 2 17 5 13 3 -3 4 -12 1
-19z m-80 -4 c-3 -3 -12 -4 -19 -1 -8 3 -5 6 6 6 11 1 17 -2 13 -5z m6924
-256 c-8 -30 -9 -27 -10 33 -1 36 2 69 7 73 11 12 14 -68 3 -106z m2519 102
c-20 -13 -43 -13 -35 0 3 6 16 10 28 10 18 0 19 -2 7 -10z"/>
<path d="M2271 5924 c0 -11 3 -14 6 -6 3 7 2 16 -1 19 -3 4 -6 -2 -5 -13z"/>
<path d="M2253 5845 c0 -22 2 -30 4 -17 2 12 2 30 0 40 -3 9 -5 -1 -4 -23z"/>
<path d="M4326 4593 c-10 -62 -7 -253 4 -253 6 0 10 55 10 145 0 80 -2 145 -4
145 -2 0 -6 -17 -10 -37z"/>
<path d="M796 4221 c-4 -7 -5 -15 -2 -18 9 -9 19 4 14 18 -4 11 -6 11 -12 0z"/>
<path d="M494 4125 c-18 -13 -18 -14 4 -8 12 3 25 9 28 14 8 14 -10 11 -32 -6z"/>
<path d="M535 4090 c-3 -5 -1 -10 4 -10 6 0 11 5 11 10 0 6 -2 10 -4 10 -3 0
-8 -4 -11 -10z"/>
<path d="M4544 3981 c3 -18 6 -37 6 -42 0 -5 5 -9 10 -9 11 0 3 45 -12 70 -6
10 -8 4 -4 -19z"/>
</g>
</svg>
