<?xml version="1.0" encoding="utf-8"?>
<!-- Generator: Adobe Illustrator 19.0.0, SVG Export Plug-In . SVG Version: 6.00 Build 0)  -->
<svg version="1.1" id="Layer_1" xmlns="http://www.w3.org/2000/svg" xmlns:xlink="http://www.w3.org/1999/xlink" x="0px" y="0px"
	 viewBox="-170 259 1043 276" style="enable-background:new -170 259 1043 276;" xml:space="preserve">
<style type="text/css">
	.st0{fill:none;}
	.st1{fill:#FFFFFF;stroke:#000000;stroke-width:3;stroke-miterlimit:10;}
	.st2{stroke:#000000;stroke-width:3;stroke-miterlimit:10;}
	.st3{font-family:'MicrosoftSansSerif';}
	.st4{font-size:99px;}
	.st5{fill:#F71C36;}
	.st6{stroke:#000000;stroke-width:8;stroke-miterlimit:10;}
</style>
<rect id="XMLID_19_" x="-55" y="461" class="st0" width="99" height="17"/>
<g id="XMLID_29_">
	<g id="XMLID_17_">
		<g id="XMLID_15_">
			<path id="XMLID_1_" class="st1" d="M28.8,506.4c-59,35.2-135.5,16-170.7-43.2s-15.9-135.5,43.2-170.7
				c45.9-27.4,102.3-21.8,141.7,9.7"/>
		</g>
		<g id="XMLID_18_">
			<path id="XMLID_30_" class="st2" d="M-30.5,530c-12.2,0.4-24.4-0.9-36.5-4c-33.8-8.5-62.3-29.7-80.1-59.7
				c-17.9-30-23-65-14.4-98.8c8.6-33.8,29.7-62.3,59.7-80.1c23.2-13.9,49.8-20.2,76.7-18.1c26.3,2.1,51.2,11.8,71.7,28.3
				c2.6,2.1,3,5.9,0.9,8.4c-2.1,2.6-5.9,3-8.4,0.9c-38.4-30.8-92.6-34.5-134.9-9.3c-27.2,16.3-46.5,42-54.2,72.7
				s-3.2,62.6,13.1,89.7c16.3,27.2,42,46.5,72.7,54.2c30.7,7.7,62.6,3.2,89.7-13.1C68,475.8,90,428,81.8,379.5
				c-0.6-3.2,1.6-6.3,4.9-6.9c3.2-0.6,6.3,1.6,6.9,4.9c4.3,25.6,0.9,51.7-9.8,75.6c-11.1,24.4-29,44.5-52,58.2
				C12.7,523-8.7,529.2-30.5,530z"/>
		</g>
	</g>
	<g id="XMLID_14_">
		<circle id="XMLID_22_" class="st2" cx="43.8" cy="304.1" r="14"/>
		<path id="XMLID_26_" class="st2" d="M44.3,321.6c-9.7,0.3-17.8-7.2-18.1-16.9c-0.3-9.7,7.2-17.8,16.9-18.1
			c9.7-0.3,17.8,7.2,18.1,16.9C61.6,313.2,54,321.3,44.3,321.6z M43.4,293.7c-5.8,0.2-10.3,5.1-10.1,10.9
			c0.2,5.8,5.1,10.3,10.9,10.1c5.8-0.2,10.3-5.1,10.1-10.9S49.2,293.5,43.4,293.7z"/>
	</g>
</g>
<g>
	<text transform="matrix(1 0 0 1 97 426.7532)" class="st3 st4">ASHBOARD</text>
	<text transform="matrix(1 0 0 1 718 426.7532)" class="st5 st3 st4">HR</text>
</g>
<g>
	<path class="st6" d="M-46.8,485.5l-59-130.9l36.1-16.3c46.1-20.8,78.8-9.9,97.9,32.6c9.1,20.2,10,39.3,2.7,57.3
		c-7.3,18-21.7,31.9-43.1,41.6L-46.8,485.5z M-84.3,361.6l46.5,103.1l19.5-8.8c17.2-7.7,28.4-18.4,33.8-31.8
		c5.4-13.5,4.3-28.7-3.3-45.5c-15.1-33.5-40.5-42.2-76.2-26.2L-84.3,361.6z"/>
</g>
</svg>
