<svg id="Layer_1" data-name="Layer 1" xmlns="http://www.w3.org/2000/svg" viewBox="0 0 900 900"><defs><style>.cls-1{fill:#300d4f;}.cls-2{fill:#fff;}.cls-3{fill:#e91e63;}</style></defs><title>dframe</title><rect class="cls-1" x="0.5" y="0.5" width="899" height="899"/><path class="cls-2" d="M899,1V899H1V1H899m1-1H0V900H900V0Z"/><path class="cls-1" d="M266.5,651.5v-424h212c116.9,0,212,95.1,212,212s-95.1,212-212,212Z"/><path class="cls-2" d="M478.5,260a179.5,179.5,0,0,1,0,359H299V260H478.5m0-65H260.65A26.65,26.65,0,0,0,234,221.65V657.35A26.65,26.65,0,0,0,260.65,684H478.5c135,0,244.5-109.47,244.5-244.5h0c0-135-109.47-244.5-244.5-244.5Z"/><rect class="cls-2" x="369.75" y="328.68" width="34.13" height="241.76" rx="17.07" ry="17.07"/><rect class="cls-2" x="455.43" y="328.68" width="34.13" height="241.76" rx="17.07" ry="17.07"/><path class="cls-2" d="M558.19,539.83h0c-9.44,0-17.09-5.72-17.09-12.77V371.71c0-7.05,7.65-12.77,17.09-12.77h0c9.44,0,17.09,5.72,17.09,12.77V527.06C575.27,534.11,567.62,539.83,558.19,539.83Z"/><circle class="cls-2" cx="386.81" cy="390.16" r="29.81"/><circle class="cls-2" cx="472.5" cy="516.34" r="29.81"/><circle class="cls-2" cx="558.19" cy="449.29" r="29.81"/><circle class="cls-3" cx="733.5" cy="652.5" r="31.5"/></svg>