<svg id="Layer_1" data-name="Layer 1" xmlns="http://www.w3.org/2000/svg" viewBox="0 0 900 900"><defs><style>.cls-1{fill:#300d4f;}.cls-2{fill:#fff;}.cls-3{fill:#e91e63;}</style></defs><title>dfilled</title><rect class="cls-1" x="0.5" y="0.5" width="899" height="899"/><path class="cls-2" d="M899,1V899H1V1H899m1-1H0V900H900V0Z"/><circle class="cls-3" cx="733.5" cy="652.5" r="31.5"/><path class="cls-2" d="M231.65,682.5a26.18,26.18,0,0,1-26.15-26.15V220.65a26.18,26.18,0,0,1,26.15-26.15H449.5a244,244,0,0,1,0,488Z"/><path class="cls-2" d="M449.5,195a243.5,243.5,0,1,1,0,487H231.65A25.68,25.68,0,0,1,206,656.35V220.65A25.68,25.68,0,0,1,231.65,195H449.5m0-1H231.65A26.65,26.65,0,0,0,205,220.65V656.35A26.65,26.65,0,0,0,231.65,683H449.5c135,0,244.5-109.47,244.5-244.5h0c0-135-109.47-244.5-244.5-244.5Z"/><rect class="cls-1" x="291.22" y="274.91" width="46.1" height="326.54" rx="23.05" ry="23.05"/><rect class="cls-1" x="406.95" y="274.9" width="46.1" height="326.54" rx="23.05" ry="23.05"/><path class="cls-1" d="M545.73,560.1h0c-12.75,0-23.08-7.72-23.08-17.25V333c0-9.52,10.33-17.25,23.08-17.25h0c12.75,0,23.08,7.72,23.08,17.25V542.85C568.81,552.38,558.48,560.1,545.73,560.1Z"/><circle class="cls-1" cx="314.27" cy="357.94" r="40.27"/><circle class="cls-1" cx="430" cy="528.37" r="40.27"/><circle class="cls-1" cx="545.73" cy="437.81" r="40.27"/></svg>